<?xml version="1.0" encoding="UTF-8"?>
<svg xmlns="http://www.w3.org/2000/svg" viewBox="0 0 180 180">
  <defs>
    <style>
      .cls-1 {
        fill: #fff;
      }
    </style>
  </defs>
  <g id="Layer_1" data-name="Layer 1">
    <circle cx="90" cy="90" r="90"/>
  </g>
  <g id="Layer_2" data-name="Layer 2">
    <path class="cls-1" d="M143.59,80.3l.79,11.26c-.53.76-1.12.71-1.71.57l-1.73.21-3.47.43-6.94.9c-2.89.38-5.78.81-8.66,1.22-.16,5.25-1.15,10.55-2.97,15.8-1.26,3.59-2.87,7.16-4.87,10.66-.53.89-.98,1.71-1.6,2.67-.62.96-1.38,2.06-2.46,3.25-1.05,1.17-2.57,2.5-4.19,3.53-1.61,1.05-3.31,1.89-4.98,2.57-6.55,2.61-13.75,3.43-19.93,2.79-6.2-.62-11.52-2.37-15.87-4.84-2.17-1.24-4.16-2.64-5.82-4.27-1.61-1.57-2.92-3.21-4.03-4.91-2.21-3.41-3.43-6.99-4.22-10.5-.75-3.51-1.06-6.98-1.2-10.33-.15-3.37-.16-6.75,0-10.14.31-6.79,1.18-13.63,2.67-20.46l.58-2.56c.21-.87.38-1.64.69-2.7.31-1.05.74-2.31,1.61-3.76.85-1.45,6.66-10.91,8.33-11.63,1.68-.73,3.26-1.26,4.71-1.7,1.45-.44,2.82-.79,4.03-1.08l3.51-.86c4.68-1.13,9.38-2.23,14.08-3.28,3.59-.71,8.62-.54,12.4,1.35,1.87.94,3.23,2.67,3.78,4.69l.48,3.15c.22.82-.19,1.77-.91,2.22-3.41,2.17-7.74.72-11.63,1.77-4.53,1.1-9.04,2.24-13.54,3.42l-3.37.89c-1.08.29-5.2,4.44-5.27,4.49,0,0,0,0-.02,0,0,0,.01,0,.02,0-.01,0-.03.02-.03.02,0,0,0,0,0,0l-.02.02c-.08.13-.26.51-.43,1.1-.17.58-.37,1.45-.56,2.22l-.54,2.37c-1.38,6.32-2.2,12.64-2.48,18.92-.14,3.14-.13,6.27,0,9.38.12,3.12.41,6.1,1.01,8.9.63,2.78,1.55,5.39,3.01,7.62.72,1.11,1.57,2.16,2.51,3.08.87.87,1.98,1.64,3.18,2.33,2.4,1.39,5.37,2.29,8.22,2.57,2.84.32,5.58-.16,7.68-.95.47-.2.82-.39,1.04-.54.22-.16.29-.21.57-.52.25-.29.59-.74.97-1.35.39-.61.81-1.39,1.21-2.09,1.6-2.87,2.86-5.8,3.85-8.75,1.31-3.97,2.03-7.98,2.18-11.93-.14.02-.29.04-.43.06-2.32.3-4.65.55-6.98.85-1.16.17-2.34.25-3.51.33l-3.53.27-1.61-8.06,3.44-1.06c1.15-.35,2.3-.71,3.47-.97,2.33-.56,4.66-1.15,6.99-1.68,4.69-.96,9.39-1.91,14.11-2.77,4.72-.82,9.45-1.62,14.18-2.37l7.1-1.11,3.55-.53,1.78-.26c.58-.3,1.16-.51,1.8.1ZM71.87,65.09"/>
  </g>
</svg>