<?xml version="1.0" encoding="UTF-8"?>
<svg xmlns="http://www.w3.org/2000/svg" version="1.1" viewBox="0 0 360 360">
  <!-- Generator: Adobe Illustrator 30.2.1, SVG Export Plug-In . SVG Version: 2.1.1 Build 1)  -->
  <defs>
    <style>
      .st0 {
        fill: #ff9400;
      }

      .st1 {
        fill: #001e38;
      }

      .st2 {
        fill: #9a95ff;
      }

      .st3 {
        fill: #00a7ff;
      }

      .st4 {
        display: none;
      }

      .st5 {
        fill: #390000;
      }

      .st6 {
        fill: #05005f;
      }
    </style>
  </defs>
  <g id="Layer_1" class="st4">
    <path class="st6" d="M63.75,4.5h232.5c35.25,0,63.75,28.5,63.75,63.75v223.5c0,35.25-28.5,63.75-63.75,63.75H63.75c-35.25,0-63.75-28.5-63.75-63.75V68.25C0,33,28.5,4.5,63.75,4.5Z"/>
    <path class="st2" d="M85.5,250.5V96c0-1.05.45-1.65,1.5-1.65,2.55,0,4.95,0,8.4-.15,3.6-.15,7.35-.15,11.4-.3,4.05-.15,8.4-.15,13.05-.3s9.15-.15,13.65-.15c12.3,0,22.5,1.5,30.9,4.65,7.5,2.55,14.4,6.75,20.1,12.3,4.8,4.8,8.55,10.65,10.95,17.1,2.25,6.3,3.45,12.75,3.45,19.5,0,12.9-3,23.55-9,31.95-6,8.4-14.4,14.7-24.15,18.3-10.2,3.75-21.45,5.1-33.75,5.1-3.6,0-6,0-7.5-.15-1.5-.15-3.6-.15-6.45-.15v48.15c.15,1.05-.6,1.95-1.65,2.1h-29.1c-1.2,0-1.8-.6-1.8-1.95v.15ZM118.2,123.45v50.4c2.1.15,4.05.3,5.85.3h7.95c5.85,0,11.7-.9,17.25-2.7,4.8-1.35,9-4.2,12.3-7.95,3.15-3.75,4.65-8.85,4.65-15.45.15-4.65-1.05-9.3-3.45-13.35-2.55-3.9-6.15-6.9-10.5-8.55-5.55-2.25-11.55-3.15-17.7-3-3.9,0-7.35,0-10.2.15-3-.15-5.1,0-6.15.15h0Z"/>
    <path class="st2" d="M220.5,132.3h26.25c1.5,0,2.7,1.05,3.15,2.4.45,1.2.75,2.4.9,3.75.3,1.5.6,3.15.75,4.65.15,1.65.3,3.45.3,5.4,4.5-5.25,9.9-9.6,16.05-12.9,6.9-3.9,14.85-5.85,22.8-5.85,1.05-.15,1.95.6,2.1,1.65v29.85c0,1.2-.75,1.65-2.4,1.65-5.4-.15-10.95.3-16.2,1.5-4.35.9-8.55,2.25-12.6,4.05-2.85,1.35-5.55,3.15-7.65,5.55v76.5c0,1.5-.6,2.1-1.95,2.1h-29.55c-1.2.15-2.25-.6-2.4-1.8v-83.7c0-3.6,0-7.35-.15-11.25-.15-3.9-.15-7.8-.3-11.7,0-3.45-.3-6.75-.6-10.2-.15-.75.3-1.5,1.05-1.65,0-.15.3-.15.45,0h0Z"/>
  </g>
  <g id="Layer_2" class="st4">
    <path class="st5" d="M63.75,4.5h232.5c35.25,0,63.75,28.5,63.75,63.75v223.5c0,35.25-28.5,63.75-63.75,63.75H63.75c-35.25,0-63.75-28.5-63.75-63.75V68.25C0,33,28.5,4.5,63.75,4.5Z"/>
    <path class="st0" d="M174,214.5h-55.8l-11.4,35.25c-.3,1.35-1.5,2.25-2.85,2.1h-28.2c-1.65,0-2.1-.9-1.65-2.7l48.3-139.05c.45-1.5.9-3.15,1.5-4.95.6-3.15.9-6.45.9-9.75-.15-.75.45-1.5,1.2-1.65h38.85c1.2,0,1.8.45,1.95,1.2l54.75,154.5c.45,1.65,0,2.4-1.5,2.4h-31.35c-1.05.15-2.1-.6-2.4-1.65l-12.3-35.7ZM126.9,184.05h38.1c-.9-3.15-2.1-6.9-3.45-10.8-1.35-4.05-2.7-8.4-4.05-12.9-1.5-4.65-2.85-9.15-4.35-13.8s-2.85-9-4.05-13.35c-1.2-4.2-2.25-8.1-3.3-11.7h-.3c-1.35,6.45-3,12.9-5.1,19.35-2.25,7.2-4.5,14.7-6.9,22.2-2.1,7.65-4.35,14.7-6.6,21ZM255,120c-4.95.15-9.75-1.8-13.35-5.25-3.45-3.75-5.25-8.7-5.1-13.8-.15-5.1,1.8-9.9,5.4-13.35,3.6-3.45,8.4-5.25,13.35-5.25,5.85,0,10.35,1.8,13.65,5.25,3.3,3.6,5.1,8.4,4.95,13.35.15,5.1-1.65,10.05-5.25,13.8-3.45,3.6-8.55,5.55-13.65,5.25h0ZM238.2,250.2v-115.5c0-1.5.6-2.1,1.95-2.1h29.7c1.35,0,1.95.75,1.95,2.1v115.5c0,1.65-.6,2.4-1.95,2.4h-29.4c-1.5,0-2.25-.9-2.25-2.4Z"/>
  </g>
  <g id="Layer_3" class="st4">
    <path class="st1" d="M63.75,4.5h232.5c35.25,0,63.75,28.5,63.75,63.75v223.5c0,35.25-28.5,63.75-63.75,63.75H63.75c-35.25,0-63.75-28.5-63.75-63.75V68.25C0,33,28.5,4.5,63.75,4.5Z"/>
    <path class="st3" d="M81,250.65V96.3c0-1.05.45-1.65,1.5-1.65,2.55,0,4.95,0,8.4-.15,3.6-.15,7.35-.15,11.4-.3s8.4-.15,13.05-.3c4.65-.15,9.15-.15,13.65-.15,12.3,0,22.5,1.5,30.9,4.65,7.5,2.55,14.4,6.75,20.1,12.3,4.8,4.8,8.55,10.65,10.95,17.1,2.25,6.3,3.45,12.75,3.45,19.5,0,12.9-3,23.55-9,31.95-6,8.4-14.4,14.7-24.15,18.3-10.2,3.75-21.45,5.1-33.75,5.1-3.6,0-6,0-7.5-.15-1.5-.15-3.6-.15-6.45-.15v48.15c.15,1.05-.6,1.95-1.65,2.1h-29.1c-1.2,0-1.8-.6-1.8-1.95ZM113.7,123.6v50.4c2.1.15,4.05.3,5.85.3h7.95c5.85,0,11.7-.9,17.25-2.7,4.8-1.35,9-4.2,12.3-7.95,3.15-3.75,4.65-8.85,4.65-15.45.15-4.65-1.05-9.3-3.45-13.35-2.55-3.9-6.15-6.9-10.5-8.55-5.55-2.25-11.55-3.15-17.7-3-3.9,0-7.35,0-10.2.15-3-.15-5.1,0-6.15.15h0Z"/>
    <path class="st3" d="M288,164.85c-4.5-2.4-9.3-4.05-14.4-5.1-5.55-1.2-11.1-1.95-16.8-1.95-3-.15-6.15.3-9,1.05-1.95.45-3.6,1.5-4.65,3-.75,1.2-1.2,2.7-1.2,4.05s.6,2.7,1.5,3.9c1.35,1.65,3.15,3,5.1,4.05,3.45,1.8,7.05,3.45,10.65,4.95,8.1,2.7,15.9,6.45,23.1,10.95,4.95,3.15,9,7.35,11.85,12.45,2.4,4.8,3.6,10.05,3.45,15.45.15,7.05-1.95,14.1-5.85,19.95-4.2,6-10.05,10.65-16.8,13.35-7.35,3.15-16.35,4.8-27.15,4.8-6.9,0-13.65-.6-20.4-1.95-5.25-.9-10.5-2.55-15.3-4.8-1.05-.6-1.8-1.65-1.65-2.85v-26.1c0-.45.15-1.05.6-1.35.45-.3.9-.15,1.35.15,5.85,3.45,12,5.85,18.6,7.35,5.7,1.5,11.7,2.25,17.7,2.25s9.75-.75,12.45-2.1c2.4-1.05,4.05-3.6,4.05-6.3,0-2.1-1.2-4.05-3.6-6-2.4-1.95-7.35-4.2-14.7-7.05-7.65-2.7-14.7-6.3-21.3-10.8-4.65-3.3-8.55-7.65-11.4-12.75-2.4-4.8-3.6-10.05-3.45-15.3,0-6.45,1.8-12.6,5.1-18.15,3.75-6,9.3-10.8,15.75-13.8,7.05-3.6,15.9-5.25,26.55-5.25,6.15,0,12.45.45,18.6,1.35,4.5.6,8.85,1.8,12.9,3.45.6.15,1.2.75,1.5,1.35.15.6.3,1.2.3,1.8v24.45c0,.6-.3,1.2-.75,1.5-1.35.3-2.1.3-2.7,0Z"/>
  </g>
  <g id="Layer_4" class="st4">
    <path class="st6" d="M63.74,4.49h232.51c35.24,0,63.74,28.5,63.74,63.74v223.53c0,35.24-28.5,63.74-63.74,63.74H63.74C28.5,355.51,0,327,0,291.76V68.24C0,33,28.5,4.49,63.74,4.49Z"/>
    <path class="st2" d="M141.39,214.54h-55.74l-11.37,35.38c-.28,1.4-1.54,2.25-2.81,2.11h-28.22c-1.68,0-2.11-.84-1.68-2.67l48.3-138.72c.42-1.54.84-3.09,1.54-4.91.7-3.09,1.26-6.32,1.26-9.55-.14-.7.42-1.54,1.26-1.68h38.89c.98,0,1.83.42,1.97,1.26l54.48,153.88c.42,1.68,0,2.39-1.54,2.39h-31.31c-.98.14-2.11-.56-2.39-1.68l-12.64-35.8ZM94.35,184.63h38.05c-.84-3.09-2.11-6.88-3.51-10.81-1.4-4.07-2.67-8.42-4.07-12.92-1.54-4.63-2.81-9.13-4.35-13.76s-2.81-8.99-4.07-13.34c-1.26-4.21-2.25-8.14-3.37-11.65h-.28c-1.4,6.46-2.95,12.92-5.05,19.38-2.25,7.16-4.49,14.74-6.88,22.18-1.83,7.58-4.21,14.6-6.46,20.92h0Z"/>
    <path class="st2" d="M304.26,133.81v91.97c0,4.07,0,7.58.14,10.81.14,3.09.28,5.9.42,8.28.28,2.39.42,3.79.56,5.34.14,1.4-.42,1.97-1.68,1.97h-25.69c-1.26.14-2.39-.56-2.81-1.68-.28-1.26-.56-2.53-.84-3.79-.28-.98-.28-2.11-.28-3.09-4.77,4.35-10.67,7.44-16.99,9.27-5.34,1.54-11.09,2.25-16.71,2.25s-11.09-.7-16.29-2.53c-4.77-1.68-9.27-4.49-12.78-8.28-3.93-4.21-6.74-9.13-8.42-14.6-2.11-6.88-3.09-14.04-2.95-21.34v-74.42c-.14-.84.42-1.83,1.54-1.97h29.06c.84-.14,1.83.42,1.97,1.54v70.9c0,6.6,1.54,11.79,4.35,15.59,2.81,3.79,8.71,5.76,15.44,5.76,3.51,0,6.88-.56,10.25-1.83,3.51-1.26,6.6-2.81,9.41-4.91v-85.23c0-.98.7-1.68,2.11-1.68h28.64c.7-.14,1.68.42,1.68,1.26-.14.14-.14.28-.14.42Z"/>
  </g>
  <g id="Layer_5" class="st4">
    <path class="st1" d="M63.74,4.49h232.51c35.24,0,63.74,28.5,63.74,63.74v223.53c0,35.24-28.5,63.74-63.74,63.74H63.74C28.5,355.51,0,327,0,291.76V68.24C0,33,28.5,4.49,63.74,4.49Z"/>
    <path class="st3" d="M188.99,252.59h-95.05c-1.68,0-2.39-.84-2.39-2.67V96.6c-.14-.98.56-1.97,1.68-2.11h29.91c.7-.14,1.68.42,1.68,1.26v126.37h69.36c1.54,0,1.97.7,1.68,2.11l-4.35,26.12c0,.7-.42,1.4-.84,1.83-.56.28-1.12.42-1.68.42Z"/>
    <path class="st3" d="M213,132.54h26.26c1.54,0,2.67.98,3.09,2.39.56.98.98,2.25,1.26,3.51.28,1.54.56,3.09.7,4.63.14,1.68.28,3.51.28,5.34,4.49-5.2,9.97-9.55,16.01-12.92,6.88-3.79,14.6-5.62,22.32-5.34.98-.14,1.97.56,2.11,1.68v29.91c0,1.26-.7,1.68-2.39,1.68-9.69-.56-19.52,1.26-28.36,5.05-2.95,1.4-5.9,3.09-8.14,5.62v76.52c0,1.54-.56,2.11-1.97,2.11h-29.2c-1.26.14-2.25-.56-2.39-1.83v-83.68c0-3.65,0-7.3-.14-11.23-.14-3.93-.14-7.86-.28-11.65-.14-3.37-.42-6.6-.84-9.97-.14-.7.28-1.54.98-1.68.28-.28.42-.28.7-.14h0Z"/>
  </g>
  <g id="Layer_6" class="st4">
    <path class="st6" d="M63.75,4.5h232.5c35.25,0,63.75,28.5,63.75,63.75v223.5c0,35.25-28.5,63.75-63.75,63.75H63.75C28.5,355.5,0,327,0,291.75V68.25C0,33,28.5,4.5,63.75,4.5Z"/>
    <path class="st2" d="M144.6,214.5h-55.8l-11.4,35.4c-.3,1.35-1.5,2.25-2.85,2.1h-28.2c-1.65,0-2.1-.9-1.65-2.7l48.3-138.45c.45-1.5.9-2.85,1.5-4.65.6-3.15.9-6.45.9-9.75-.15-.75.45-1.5,1.2-1.65h38.85c1.05,0,1.8.45,1.95,1.2l54.75,153c.45,1.65,0,2.4-1.5,2.4h-31.35c-1.05.15-2.1-.6-2.4-1.65l-12.3-36v.75ZM97.5,184.65h38.1c-.9-3.15-2.1-6.9-3.45-10.8-1.35-4.05-2.7-8.4-4.05-12.9-1.5-4.65-2.85-9.15-4.35-13.8-1.5-4.65-2.85-9-4.05-13.35-1.2-4.2-2.25-8.1-3.3-11.7h-.3c-1.35,6.45-3,12.9-5.1,19.35-2.25,7.2-4.5,14.7-6.9,22.2-1.95,7.65-4.35,14.7-6.6,21Z"/>
    <path class="st2" d="M280.5,201h-47.55c.6,4.65,2.1,9.3,4.65,13.35,2.7,4.05,6.45,7.2,10.95,9,6,2.55,12.6,3.9,19.2,3.75,5.25-.15,10.5-.6,15.6-1.65,4.65-.6,9.15-1.8,13.35-3.45.75-.6,1.2-.3,1.2,1.2v22.95c0,.6-.15,1.2-.3,1.8-.3.45-.6.75-1.05,1.05-4.8,2.1-9.75,3.6-15,4.5-7.05,1.35-14.1,1.95-21.3,1.8-11.4,0-21-1.8-28.8-5.25-7.35-3.15-13.8-8.1-18.9-14.25-4.8-5.85-8.25-12.45-10.35-19.65-2.1-7.05-3.15-14.4-3.15-21.9,0-8.1,1.2-16.05,3.75-23.85,2.4-7.5,6.15-14.4,11.25-20.55,4.95-6,11.1-10.8,18.15-14.25,7.05-3.45,15.45-4.65,25.05-4.65,7.95-.15,15.9,1.35,23.25,4.65,6.15,2.7,11.55,6.75,15.75,12,3.9,5.1,7.05,10.8,9,17.1,1.95,6,2.85,12.15,2.85,18.3,0,3.6-.15,6.75-.3,9.6-.3,2.85-.45,4.95-.6,6.3-.15,1.05-1.05,1.95-2.1,1.95-.9,0-2.55.15-4.95.3-2.4.3-5.25.45-8.7.45s-7.05-.6-10.95-.6h0ZM232.95,179.1h31.65c3.9,0,6.75,0,8.55-.15,1.2-.15,2.4-.45,3.45-1.2v-1.5c0-1.95-.3-3.75-.9-5.55-2.7-8.4-10.65-14.1-19.5-13.8-8.25-.45-16.05,3.9-19.95,11.4-1.8,3.45-2.85,7.05-3.3,10.8Z"/>
  </g>
  <g id="Layer_7">
    <path class="st6" d="M63.75,4.5h232.5c35.25,0,63.75,28.5,63.75,63.75v223.5c0,35.25-28.5,63.75-63.75,63.75H63.75c-35.25,0-63.75-28.5-63.75-63.75V68.25C0,33,28.5,4.5,63.75,4.5Z"/>
    <path class="st2" d="M50.7,95.85c.15-.9.9-1.5,1.8-1.5h42.15c1.2-.15,2.25.6,2.55,1.65,1.05,4.2,2.4,9.15,3.9,15.15,1.5,5.85,3.15,12.3,4.95,19.5,1.8,7.05,3.6,14.4,5.4,21.75s3.6,14.55,5.4,21.6c1.8,7.05,3.3,13.5,4.5,19.35,1.2,5.85,2.25,10.8,3,14.55h.3c.6-3.45,1.65-7.95,3.15-13.5,1.5-5.7,3.3-12,5.25-18.9,1.95-7.05,4.05-14.25,6.15-21.6,2.1-7.35,4.05-14.7,6.15-22.05,1.95-7.2,3.9-13.95,5.55-20.1,1.8-6.15,3.15-11.4,4.2-15.6.15-1.05,1.05-1.8,2.1-1.65h41.1c1.05-.15,1.95.6,2.1,1.5v.15l5.55,154.35c.15.6,0,1.2-.3,1.5-.45.45-.9.6-1.5.6h-29.85c-.45,0-.75-.15-1.2-.3-.3-.3-.45-.9-.45-1.35,0-8.25,0-16.8-.15-25.8-.15-9-.15-18-.3-27.15-.15-9.15-.15-17.85,0-26.25.15-8.4.3-16.05.3-23.25s0-13.2.15-18.45c.15-5.25.15-9.15.15-11.7h-.3c-.9,4.05-2.1,9.3-3.6,15.75-1.5,6.45-3.3,13.8-5.4,22.05-2.1,8.1-4.35,16.5-6.6,25.2-2.4,8.7-4.65,17.25-6.9,25.8-2.25,8.55-4.35,16.5-6.45,23.85-2.1,7.35-3.75,13.95-5.1,19.5-.3,1.2-1.35,1.95-2.55,1.95h-26.25c-1.35.15-2.55-.6-2.7-1.95-1.35-5.7-3-12.15-4.65-19.5-1.8-7.35-3.6-15.15-5.4-23.25-1.8-8.1-3.75-16.35-5.85-24.75-2.1-8.4-4.05-16.65-5.85-24.45-1.8-7.95-3.45-15.3-4.95-22.2s-2.85-13.05-4.05-18.3h-.45v19.05c0,7.35-.15,15.6-.3,24.45-.3,9-.45,18.3-.75,28.05-.3,9.75-.45,19.8-.75,30.15-.3,10.35-.75,20.7-1.2,30.75,0,1.35-.6,1.95-1.8,1.95h-26.55c-.45,0-1.05-.15-1.5-.3-.45-.3-.45-.9-.3-1.8l8.1-154.5ZM295.05,199.95h-47.55c.6,4.5,2.1,8.85,4.65,12.75,2.7,4.05,6.45,7.2,10.95,9,4.95,2.25,11.25,3.45,19.2,3.45,5.25,0,10.5-.45,15.6-1.35,4.8-.9,9.6-2.25,14.1-4.2.75-.6,1.2-.3,1.2,1.2v22.95c0,.6-.15,1.2-.3,1.8-.3.45-.6.75-1.05,1.05-4.95,2.4-10.2,4.05-15.75,5.25-7.05,1.35-14.1,1.95-21.3,1.8-11.4,0-21-1.8-28.8-5.25-7.35-3.15-13.8-8.1-18.9-14.25-4.8-5.85-8.25-12.45-10.35-19.65-2.1-7.05-3.15-14.4-3.15-21.9,0-8.1,1.2-16.05,3.75-23.85,2.4-7.5,6.15-14.4,11.25-20.55,4.95-6,11.1-10.8,18.15-14.25,7.8-3.6,16.5-5.4,25.05-5.25,7.95-.15,15.9,1.35,23.25,4.65,6.15,2.85,11.7,7.05,15.75,12.45,3.9,5.1,7.05,10.8,9,17.1,1.95,6,2.85,12.15,2.85,18.3,0,3.6-.15,6.75-.3,9.6-.3,2.85-.45,4.95-.6,6.3-.15,1.05-1.05,1.95-2.1,1.95-.9,0-2.55.15-4.95.3-2.4.3-5.25.45-8.7.45s-7.2.15-10.95.15ZM247.5,176.4h31.5c3.9,0,6.75,0,8.55-.15,1.2,0,2.4-.15,3.45-.3v-1.5c0-1.95-.3-3.75-.9-5.55-2.7-8.4-10.65-14.1-19.5-13.8-8.25-.45-16.05,3.9-19.95,11.4-1.65,3.15-2.7,6.45-3.15,9.9Z"/>
  </g>
</svg>