<?xml version="1.0" encoding="UTF-8"?>
<svg id="Layer_12" xmlns="http://www.w3.org/2000/svg" version="1.1" viewBox="0 0 360 360">
  <!-- Generator: Adobe Illustrator 30.2.1, SVG Export Plug-In . SVG Version: 2.1.1 Build 1)  -->
  <defs>
    <style>
      .st0, .st1 {
        fill-rule: evenodd;
      }

      .st0, .st2 {
        fill: #fff;
      }

      .st1, .st2 {
        display: none;
      }
    </style>
  </defs>
  <path class="st2" d="M63.75,4.5h232.5c35.25,0,63.75,28.5,63.75,63.75v223.5c0,35.25-28.5,63.75-63.75,63.75H63.75c-35.25,0-63.75-28.5-63.75-63.75V68.25C0,33,28.5,4.5,63.75,4.5Z"/>
  <path class="st1" d="M215.37,49.54l-145.04,10.71c-11.7,1.01-15.77,8.66-15.77,17.82v159c0,7.14,2.53,13.24,8.65,21.41l34.09,44.33c5.6,7.14,10.69,8.67,21.39,8.16l168.43-10.2c14.24-1.01,18.32-7.65,18.32-18.85V103.04c0-5.79-2.29-7.46-9.02-12.41l-47.45-33.46c-11.2-8.14-15.78-9.17-33.6-7.65h0ZM122.5,100.12c-13.75.93-16.87,1.13-24.68-5.22l-19.86-15.8c-2.02-2.04-1-4.59,4.08-5.1l139.43-10.19c11.71-1.02,17.81,3.06,22.39,6.62l23.91,17.33c1.02.52,3.56,3.56.51,3.56l-143.99,8.67-1.78.12h0ZM106.46,280.39v-151.85c0-6.63,2.04-9.69,8.13-10.2l165.38-9.68c5.61-.51,8.14,3.06,8.14,9.68v150.84c0,6.63-1.02,12.24-10.18,12.75l-158.26,9.17c-9.16.51-13.22-2.54-13.22-10.7h0ZM262.69,136.68c1.01,4.59,0,9.17-4.59,9.7l-7.63,1.51v112.12c-6.62,3.56-12.72,5.6-17.82,5.6-8.14,0-10.18-2.55-16.28-10.19l-49.88-78.48v75.93l15.78,3.57s0,9.17-12.73,9.17l-35.1,2.04c-1.02-2.04,0-7.14,3.56-8.15l9.17-2.54v-100.39l-12.72-1.03c-1.02-4.59,1.52-11.21,8.65-11.72l37.66-2.53,51.9,79.49v-70.33l-13.23-1.52c-1.02-5.62,3.05-9.7,8.13-10.2l35.12-2.04h0Z"/>
  <path class="st0" d="M223.1,21l-176.76,13.06c-14.26,1.23-19.22,10.55-19.22,21.72v193.78c0,8.7,3.09,16.14,10.54,26.09l41.55,54.03c6.83,8.7,13.03,10.56,26.07,9.94l205.27-12.43c17.36-1.24,22.33-9.32,22.33-22.98V86.21c0-7.06-2.79-9.09-11-15.12l-57.83-40.77c-13.65-9.93-19.23-11.18-40.94-9.32h0ZM109.92,82.64c-16.76,1.13-20.56,1.38-30.08-6.36l-24.2-19.25c-2.46-2.49-1.22-5.6,4.97-6.22l169.92-12.42c14.27-1.25,21.7,3.73,27.28,8.07l29.14,21.12c1.25.63,4.34,4.34.62,4.34l-175.48,10.56-2.17.15h0ZM90.38,302.35V117.28c0-8.08,2.48-11.81,9.91-12.44l201.55-11.8c6.84-.62,9.93,3.73,9.93,11.8v183.83c0,8.08-1.25,14.92-12.4,15.53l-192.87,11.18c-11.16.62-16.11-3.1-16.11-13.04h0ZM280.77,127.21c1.24,5.59,0,11.18-5.59,11.82l-9.3,1.84v136.64c-8.07,4.34-15.5,6.83-21.71,6.83-9.93,0-12.4-3.11-19.84-12.42l-60.79-95.64v92.53l19.23,4.35s0,11.18-15.52,11.18l-42.77,2.48c-1.25-2.49,0-8.7,4.33-9.93l11.17-3.1v-122.35l-15.5-1.26c-1.25-5.59,1.85-13.66,10.54-14.29l45.9-3.09,63.25,96.88v-85.71l-16.12-1.85c-1.25-6.85,3.72-11.82,9.91-12.43l42.81-2.49h0Z"/>
</svg>