<?xml version="1.0" encoding="UTF-8"?>
<svg id="Layer_2" xmlns="http://www.w3.org/2000/svg" version="1.1" xmlns:xlink="http://www.w3.org/1999/xlink" viewBox="0 0 360 360">
  <!-- Generator: Adobe Illustrator 30.2.1, SVG Export Plug-In . SVG Version: 2.1.1 Build 1)  -->
  <defs>
    <style>
      .st0 {
        fill: url(#radial-gradient);
      }
    </style>
    <radialGradient id="radial-gradient" cx="180" cy="180" fx="180" fy="180" r="151.56" gradientUnits="userSpaceOnUse">
      <stop offset="0" stop-color="#54c4d4"/>
      <stop offset="1" stop-color="#fff"/>
    </radialGradient>
  </defs>
  <circle class="st0" cx="180" cy="180" r="151.56"/>
  <path d="M302.52,54.54c-68.09-66.42-176.98-66.43-245.06,0C-11.86,122.19-13.29,233.17,54.12,302.52c32.29,33.22,76.35,52.37,122.76,53.18,96.81,1.68,176.63-75.31,178.59-171.9.99-48.68-18.2-95.35-52.96-129.26ZM325.23,155.56c-.14,3.89-3.69,6.9-7.87,6.22-26.46-4.34-59.16,2.55-79.89,18.87l-19.03,14.97c-.59.46-2.25.09-2.68-.42-.53-.63-.6-2.35.12-3.02l17.53-16.3c11.01-10.24,24.61-16.77,38.86-21.63,14.91-5.09,30.26-6.95,45.89-5.81,4.16.31,7.21,2.97,7.06,7.12ZM308.76,118.04c4.27-.02,7.39,2.89,7.31,6.93-.08,4.01-3.6,6.84-7.76,6.42-27.83-2.85-58.71,7.65-79.32,26.48l-10.42,9.53c-.64.59-2.16.6-2.86,0-.64-.54-.76-2.2-.05-2.96l11.61-12.49c11.61-12.49,26.38-21.05,42.42-26.92,12.66-4.64,25.61-6.92,39.07-7ZM298.94,94.69c.39,4.34-2.73,7.06-7.12,7.37-23.03,1.61-44.87,10.86-62.25,26.04-8.1,7.07-14.85,14.92-21.72,23.1-.71.85-2.1,1.16-2.84.67-.94-.61-1.43-2.2-.73-3.21,4.5-6.5,8.98-12.48,14-18.58,18.33-22.27,44.16-36.93,72.7-41.32,4.2-.65,7.61,2.05,7.96,5.93ZM259.6,80.4c-25.65,16.42-46.89,38.23-62.72,64.21-.59.97-1.96,1.15-2.82.88-.8-.25-1.94-1.81-1.04-3.16,15.19-22.85,34.49-42.07,57.33-56.96,3.27-1.7,5.82-3.82,9.26-4.97ZM249.04,73.36c-26.89,18.79-46.56,40.72-64.07,68.21-.67,1.04-1.93,1.45-2.79,1.19-.86-.26-2.15-1.94-1.3-3.17,17.5-25.23,37.9-47.04,63.43-63.86,1.52-1,2.99-1.97,4.73-2.37ZM206.71,94.54c-7.55,7.96-14.58,15.79-21.22,24.52l-20.16,26.51c-.49.64-2.09.66-2.71.37-.71-.33-1.59-2.18-.79-3.16l20.47-25.11c7.45-9.13,15.36-17.28,23.77-25.53,9.69-8.77,19.08-17.59,30.38-24.32-10.4,8.66-20.48,16.91-29.74,26.72ZM113.24,49.76c12.81-.49,25.29-1.97,37.83-4.65l15.36-4.34c-15.58,10.55-33.76,17-51.94,22.19-4.42,1.26-8.15-2.12-8.4-5.99-.27-4.17,2.87-7.04,7.15-7.21ZM72.82,81.32c13.1-.6,25.37-2.18,37.91-5.06,11.47-2.64,22.43-5.6,33.42-9.69,4.78-1.78,9.22-3.45,13.73-5.86l32.51-17.35c-11.7,9.08-23.54,17.19-36.21,24.47-12.76,7.33-26.17,12.43-40.07,17.17-13.2,4.5-26.35,7.87-40.21,9.46-3.73.43-6.48-2.78-6.77-5.95-.29-3.19,1.8-7.01,5.68-7.19ZM54.34,110.66c35.49.58,74.02-10.85,103.28-30.61l47.77-32.26-39.3,31.96c-19.91,16.18-42.5,28.36-66.96,36.08-14.23,4.49-28.51,7.09-43.64,8.1-4.43.3-7.68-2-8.01-6.09-.31-3.87,2.62-7.25,6.87-7.18ZM45.27,140.03c24.29,2.69,48.7-2.41,70.51-13.42,14.53-7.34,28.52-15.2,41.16-25.45l43.58-35.35c4.91-3.98,9.35-7.97,15.24-10.89l-16.38,14.62-39.74,36.58c-11.46,10.54-24.42,18.74-37.68,26.78-23.29,14.12-49.8,21.32-77.25,20.47-4.71-.15-8.17-2.55-8-7.08.17-4.57,4.04-6.76,8.56-6.26ZM32.81,174.04c.85-3.84,4.39-5.75,8.32-5.06,4.47.79,8.82,1.2,13.41,1.31,24.39.57,47.89-6.9,68.18-20.31,16.71-11.04,32.03-23.47,45.74-38.09,12.83-13.69,26.41-26.26,40.7-38.36,6.89-5.27,13.05-10.8,20.65-15.04-9.32,7.89-18.26,15.36-26.93,23.87-11.48,11.18-22.01,22.77-32.41,34.94-5.17,6.05-10.44,11.31-16.08,16.93-8.27,8.25-17.2,15.27-26.57,22.32-19.49,14.68-42.36,23.75-66.76,25.83-7.79.67-15.08.63-22.98-.4-4.03-.52-6.04-4.57-5.29-7.95ZM34.78,205.25c-.09-3.49,3.02-7.2,7.08-6.64,7.76,1.07,15.14,1.92,23.08,1.35,20.61-1.48,41.09-7.4,57.34-20.2l19.18-15.11c.55-.43,2.31-.11,2.83.31.6.47.92,2.46.32,3.01l-18.21,16.9c-11.88,11.03-26.8,17.79-42.33,22.53-13.74,4.19-27.62,5.64-42.07,4.6-4.24-.3-7.13-2.76-7.23-6.74ZM51.47,242.38c-4.54.02-7.6-2.87-7.51-6.94.09-4.03,3.58-6.85,7.75-6.42,32.38,3.36,60.41-9.45,83.72-30.72l5.9-5.39c.76-.7,2.25-.66,2.89-.15.93.75,1.09,2.42.23,3.35l-7.48,8.14c-11.49,12.51-25.15,22.34-40.86,28.93-14.2,5.96-28.93,9.11-44.64,9.19ZM61.06,265.72c-.4-4.33,2.72-7.06,7.09-7.37,23.15-1.6,45.05-10.96,62.48-26.27,7.99-7.02,14.69-14.8,21.48-22.9.79-.94,2.06-1.17,2.94-.68.83.46,1.42,2.16.78,3.1-5.42,7.93-10.96,15.35-17.39,22.55-17.96,20.13-42.36,33.24-69.24,37.5-4.46.71-7.79-2.09-8.14-5.92ZM100.41,280.13l10.08-7.04c21.51-15.02,38.93-34.89,52.63-57.28.6-.98,1.94-1.16,2.83-.91.79.22,1.84,1.95,1.15,2.98-15.01,22.65-34.14,41.86-57.02,56.88-3.51,2-6.16,3.81-9.67,5.36ZM110.96,287.05c26.88-18.79,46.55-40.71,64.07-68.21.64-1.01,2-1.44,2.79-1.16,1.16.42,2.04,2.08,1.21,3.27-17.39,25.06-37.71,46.85-63.46,63.81-1.62,1.07-2.98,1.95-4.62,2.3ZM153.29,265.87c7.16-7.6,13.92-14.97,20.25-23.27l21.13-27.75c.6-.79,2.42-.66,3.02-.17.62.51,1.04,2.28.4,3.06l-20.61,25.23c-10.82,13.25-22.67,25.03-35.83,36.27-6.1,4.88-11.44,9.65-18.14,13.3,10.49-8.57,20.48-16.91,29.77-26.68ZM246.77,310.65c-12.57.47-24.76,1.92-37.32,4.52l-15.88,4.46c15.54-10.51,34.29-17.21,52.13-22.22,4.21-1.18,7.99,2.17,8.21,6.02.25,4.2-2.86,7.06-7.14,7.22ZM286.98,279.12c-11.97.53-23.45,1.88-35.15,4.48-19.04,4.23-36.72,9.25-54.27,18.37l-27.8,14.99c11.27-8.8,23.16-16.94,35.77-24.22,12.76-7.37,26.14-12.46,40.02-17.22,13.18-4.52,26.3-7.84,40.12-9.57,3.88-.49,6.87,2.48,7.2,5.95.33,3.43-2.03,7.06-5.88,7.23ZM312.68,243.37c-.37,3.86-3.46,6.3-7.47,6.13-19.09-.79-37.71,2.27-55.67,8.73-11.15,4.01-21.67,8.29-32.2,13.57-7.51,3.77-14.13,7.91-21.25,12.73l-41.36,28.03,37.19-30.29c7.85-6.4,15.62-11.98,24.35-17.07,11.76-6.85,23.6-12.73,36.28-17.84,17.25-6.96,35.38-10.7,53.98-11.16,3.98-.1,6.46,3.95,6.15,7.17ZM314.73,220.4c-24.07-2.67-48.27,2.3-69.92,13.12-14.57,7.28-28.61,15.11-41.27,25.37l-44.18,35.83c-5.04,4.09-9.45,7.78-15.03,10.94,2.63-3.42,5.87-5.25,8.91-8.03l47.37-43.54c11.31-10.39,24.12-18.45,37.16-26.4,23.46-14.31,50.27-21.57,77.73-20.62,4.46.16,7.98,2.5,7.8,7.04-.19,4.62-4.07,6.78-8.56,6.28ZM327.34,185.29c-.19,3.63-3.4,6.77-7.35,6.22-4.89-.68-9.55-1.26-14.53-1.38-24.19-.61-47.46,6.82-67.65,19.95-18.45,12-34.82,25.99-49.82,42.07-11,11.78-22.8,22.46-35.04,32.87-7.22,6.14-14.23,11.75-22.62,16.86,8.8-7.63,17.76-14.98,26.32-23.37,10.57-10.35,20.41-20.85,29.98-32.09,6.1-7.17,12.24-13.62,18.95-20.24,8.32-8.22,17.22-15.26,26.57-22.31,22.04-16.6,48.45-26,76.14-26.25,4.4-.04,8.41.31,12.68.62,3.87.29,6.56,3.36,6.37,7.06Z"/>
</svg>